<?xml version="1.0" encoding="utf-8"?>
<!-- Generator: Adobe Illustrator 16.0.0, SVG Export Plug-In . SVG Version: 6.00 Build 0)  -->
<!DOCTYPE svg PUBLIC "-//W3C//DTD SVG 1.1//EN" "http://www.w3.org/Graphics/SVG/1.1/DTD/svg11.dtd">
<svg version="1.1" id="Layer_1" xmlns="http://www.w3.org/2000/svg" xmlns:xlink="http://www.w3.org/1999/xlink" x="0px" y="0px"
	 width="72px" height="72px" viewBox="0 0 72 72" enable-background="new 0 0 72 72" xml:space="preserve">
<g>
	<path fill="#EC008B" d="M19.19,29.11c-0.46,0.21-0.92,0.45-1.38,0.71C9.75,34.48,6.98,44.8,11.64,52.88
		c3.13,5.41,8.8,8.44,14.63,8.44c2.86,0,5.76-0.73,8.42-2.26c0.45-0.26,0.89-0.54,1.31-0.83c-5.03-3.55-7.6-9.46-7.07-15.32
		C23.59,40.42,19.75,35.24,19.19,29.11"/>
	<path fill="#00ADEF" d="M52.81,29.11c-0.56,6.13-4.39,11.32-9.74,13.78c0.54,5.86-2.04,11.78-7.06,15.32
		c0.42,0.29,0.85,0.57,1.31,0.83c2.66,1.53,5.56,2.26,8.42,2.26c5.83,0,11.5-3.03,14.63-8.44c4.66-8.07,1.9-18.39-6.17-23.05
		C53.73,29.56,53.27,29.32,52.81,29.11"/>
	<path fill="#000082" d="M43.06,42.89c-2.15,0.99-4.54,1.55-7.06,1.55s-4.92-0.55-7.06-1.55C28.4,48.76,30.97,54.67,36,58.22
		C41.03,54.67,43.6,48.76,43.06,42.89"/>
	<path fill="#FFF100" d="M36,10.69c-9.32,0-16.88,7.55-16.88,16.88c0,0.52,0.02,1.04,0.07,1.55c2.27-1.05,4.67-1.55,7.05-1.55
		c3.48,0,6.9,1.08,9.76,3.1c2.86-2.02,6.28-3.09,9.76-3.1c2.38,0,4.78,0.5,7.05,1.55c0.05-0.51,0.07-1.02,0.07-1.55
		C52.88,18.24,45.32,10.69,36,10.69"/>
	<path fill="#EC0000" d="M26.24,27.56c-2.38,0-4.78,0.5-7.05,1.55c0.56,6.13,4.39,11.31,9.74,13.78c0.22-2.36,0.93-4.71,2.19-6.89
		s2.94-3.98,4.87-5.35C33.14,28.64,29.72,27.56,26.24,27.56"/>
	<path fill="#00A400" d="M45.76,27.56c-3.48,0-6.9,1.08-9.76,3.1c1.93,1.37,3.61,3.16,4.87,5.35c1.26,2.18,1.98,4.53,2.19,6.89
		c5.35-2.47,9.18-7.65,9.74-13.78C50.54,28.06,48.14,27.56,45.76,27.56"/>
	<path d="M36,30.65c-1.93,1.37-3.61,3.16-4.87,5.35s-1.98,4.53-2.19,6.89c2.15,0.99,4.54,1.55,7.06,1.55s4.92-0.55,7.06-1.55
		c-0.22-2.36-0.93-4.71-2.19-6.89C39.61,33.81,37.93,32.02,36,30.65"/>
</g>
</svg>
